<?xml version="1.0" encoding="UTF-8"?>
<svg id="Layer_2" xmlns="http://www.w3.org/2000/svg" viewBox="0 0 103.74 103.74">
<defs><style>.cls-1{fill:#ddd;}</style></defs>
<g id="Layer_1-2">
<path class="cls-1" d="M57.75,71.45l-4.01-2.82c-.3-.21-.69-.24-1.02-.08-.33.17-.54.5-.55.87l-.12,4.33c0,.33.15.65.42.84.17.12.38.19.58.19.12,0,.23-.02.34-.06l4.14-1.52c.35-.13.6-.44.65-.81.05-.37-.11-.73-.42-.95ZM54.08,72.34l.03-1,.93.65-.96.35ZM46.87,65.75c.06.05,1.45.68,1.53.71.11.05,2.97,1.14,3.07,1.06.3.04.6-.07.8-.31.2-.2.28-.49.22-.77l-1.03-4.78c-.08-.36-.35-.65-.7-.75-.35-.1-.73,0-.99.26l-3.02,3.08c-.23.24-.33.57-.27.9.05.25.19.46.4.6ZM49.89,63.9l.24,1.09-.92-.39.69-.7ZM49.08,56.04c.07.24.76,1.8,1,1.84.21.15.47.2.73.13.19-.02.37-.13.5-.29l2.94-3.88c.22-.29.27-.68.11-1.02-.15-.33-.48-.56-.84-.58l-4.29-.28c-.33-.02-.65.12-.85.38-.18.23-.25.53-.18.81,0,.04.87,2.85.89,2.89ZM51.54,54.11l-.66.88-.3-.94.97.06ZM56.35,51.89c.12,0,.24-.02.35-.06l4.54-1.71c.34-.13.59-.44.64-.8.05-.36-.11-.73-.4-.94l-3.47-2.52c-.27-.2-.62-.24-.93-.13-.31.11-.55.37-.63.69l-1.07,4.23c-.09.36.02.74.3.99.19.17.42.25.67.25ZM58.03,48.34l.77.56-1.01.38.24-.94ZM88.49,42.02h-7.8v-8.9c0-.83-.67-1.5-1.5-1.5h-7.95v-6.25c0-.83-.67-1.5-1.5-1.5H15.25c-.83,0-1.5.67-1.5,1.5v34.86c0,.83.67,1.5,1.5,1.5h7.95v6.33c0,.83.67,1.5,1.5,1.5h7.8v8.82c0,.83.67,1.5,1.5,1.5h54.49c.83,0,1.5-.67,1.5-1.5v-34.86c0-.83-.67-1.5-1.5-1.5ZM23.2,33.2v25.53h-6.45v-31.86h51.49v4.83H24.7c-.83,0-1.5.67-1.5,1.5ZM32.5,43.52v23.05h-6.3v-31.86h43.54c.17,0,.33-.03.48-.09h7.46v7.4h-43.69c-.83,0-1.5.67-1.5,1.5ZM86.99,76.88h-51.49v-31.86h51.49v31.86ZM53.12,57.48c1.64-3.79,5.52-6.2,9.65-6.01.55.03.98.5.95,1.05-.03.55-.5.97-1.05.95-3.32-.18-6.4,1.77-7.72,4.8-1.3,2.99-.66,6.44,1.62,8.77.39.4.38,1.03-.02,1.41-.19.19-.45.29-.7.29s-.52-.1-.71-.3c-2.85-2.92-3.65-7.22-2.02-10.96ZM63.9,55.32c0,.55-.45,1.02-1.01.99-1.54.02-2.96.55-4.06,1.58-1.05.98-1.7,2.31-1.83,3.74-.05.52-.48.91-1,.91-.03,0-.06,0-.09,0-.55-.05-.95-.54-.9-1.09.18-1.91,1.05-3.69,2.46-5.01,1.48-1.39,3.44-2.13,5.45-2.12.55,0,1,.46.99,1.01ZM58.16,68.87c-.31.2-.48.55-.45.92.03.37.26.69.6.83,1.29.56,2.64.83,3.96.83,3.86,0,7.55-2.25,9.18-6.02,1.16-2.66,1.04-5.56-.05-8.02-.05-.31-.18-.59-.39-.79-1.03-1.86-2.65-3.42-4.75-4.33-.38-.16-.82-.08-1.11.22-.29.3-.37.74-.19,1.12,2.37,5.16-1.68,11.93-6.79,15.24ZM63.84,66.86h0s.03,0,.04,0c.04.07.08.14.12.21-.11,0-.21-.02-.3-.04.08-.14.14-.18.14-.18ZM60.93,69.34c.39-.31.75-.63,1.11-.96.61.64,1.67.7,2.51.73-1.16.34-2.39.44-3.62.23ZM67.51,55.41c.51.45.95.96,1.32,1.51-.9.65-.87,1.2-.86,1.42.02.26.16.89,1.05,1.15.2.06.41.09.6.09.14,0,.27-.03.4-.06.41,1.65.32,3.44-.41,5.11-.03.07-.06.13-.09.19.42-1.08.36-1.89.35-1.99-.04-.39-.31-.72-.68-.84-.64-.21-1.69-.47-2.53-.3.83-2.18,1.1-4.35.84-6.29ZM67.79,63.71c-.03.1-.06.21-.1.32-.06-.11-.11-.23-.16-.36.08,0,.17.02.26.04ZM67.52,66.43c.1.02.19.03.29.03.39,0,.76-.17,1.05-.47-.74,1.07-1.71,1.92-2.81,2.51.01-.02.03-.03.04-.05.37-.66.16-1.63-.64-2.88-.06-.1-.14-.18-.23-.25-.03-.02-.15-.11-.34-.21.25-.36.47-.73.68-1.1.28.97.95,2.21,1.97,2.41ZM72.53,49.79c.22-.51.81-.74,1.32-.52l1.23.54.54-1.24c.22-.51.81-.74,1.31-.52.51.22.74.81.52,1.31l-.54,1.24,1.24.54c.51.22.74.81.52,1.32-.16.38-.53.6-.92.6-.13,0-.27-.03-.4-.08l-1.23-.54-.54,1.24c-.16.38-.53.6-.92.6-.13,0-.27-.03-.4-.08-.51-.22-.74-.81-.52-1.31l.54-1.24-1.24-.54c-.51-.22-.74-.81-.52-1.32ZM78.98,56.71l.24.56.56-.24c.51-.22,1.1.01,1.32.52.22.51-.01,1.1-.52,1.32l-.56.24.24.56c.22.51-.01,1.1-.52,1.32-.13.06-.26.08-.4.08-.39,0-.75-.22-.92-.6l-.24-.56-.56.24c-.13.06-.26.08-.4.08-.39,0-.75-.22-.92-.6-.22-.51.01-1.1.52-1.32l.56-.24-.24-.56c-.22-.51.01-1.1.52-1.32.51-.22,1.1.01,1.32.52ZM51.87,0C23.27,0,0,23.27,0,51.87s23.27,51.87,51.87,51.87,51.87-23.27,51.87-51.87S80.47,0,51.87,0ZM51.87,100.74c-26.95,0-48.87-21.92-48.87-48.87S24.92,3,51.87,3s48.87,21.92,48.87,48.87-21.92,48.87-48.87,48.87Z"/>
</g></svg>